<svg width="74" height="51" viewBox="0 0 74 51" fill="none" xmlns="http://www.w3.org/2000/svg">
<path d="M15.8984 11.7161C16.4482 10.675 16.7173 9.55191 16.7173 8.34695C16.7173 6.86123 16.3546 5.4808 15.6235 4.21735C14.8923 2.9539 13.8979 1.93613 12.6345 1.16402C11.371 0.391913 9.93795 0.00585938 8.34109 0.00585938H0.25152C0.140383 0.00585937 0.0818901 0.0643523 0.0818901 0.175489L0 29.1061C0 29.2465 0.0584929 29.3167 0.16963 29.3167H7.70937C9.33547 29.3167 10.8212 28.9189 12.1548 28.1176C13.4885 27.3162 14.5472 26.2458 15.3368 24.8946C16.1207 23.5493 16.5184 22.0577 16.5184 20.4316C16.5184 19.25 16.2961 18.1328 15.8457 17.0624C15.3953 15.9978 14.7636 15.0561 13.9506 14.243C14.711 13.5996 15.3602 12.7573 15.9101 11.7161H15.8984ZM10.3182 23.0638C9.58699 23.8066 8.71545 24.181 7.70937 24.181H5.10058L5.14153 16.729H7.70937C8.7213 16.729 9.59284 17.0916 10.3182 17.8228C11.0493 18.554 11.412 19.4255 11.412 20.4316C11.412 21.4377 11.0493 22.3209 10.3182 23.0638ZM10.7159 10.5989C10.1134 11.2891 9.31793 11.6284 8.33524 11.6284H5.13568V5.0187H8.33524C9.23604 5.0187 10.0023 5.34627 10.6516 6.00724C11.295 6.66821 11.6225 7.44616 11.6225 8.34695C11.6225 9.16001 11.3184 9.91456 10.7159 10.5989Z" fill="#0098FF"/>
<path d="M51.4454 20.0449C50.1937 19.3021 48.8015 18.9277 47.2573 18.9277C45.7131 18.9277 44.4029 19.3079 43.1511 20.0625C41.8994 20.8229 40.905 21.8407 40.1621 23.1158C39.4193 24.391 39.0449 25.789 39.0449 27.3039V40.652C39.0449 42.2255 39.4193 43.6469 40.1621 44.9279C40.905 46.2088 41.8935 47.2208 43.1336 47.9812C44.3678 48.7416 45.7424 49.1159 47.2632 49.1159C48.784 49.1159 50.1995 48.7357 51.4337 47.9812C52.6679 47.2208 53.6565 46.203 54.4052 44.9279C55.148 43.6527 55.5224 42.2255 55.5224 40.652V33.6621C55.5224 33.5217 55.4639 33.4515 55.3528 33.4515H47.4796C47.3392 33.4515 47.269 33.5217 47.269 33.6621V38.3766C47.269 38.517 47.3392 38.5872 47.4796 38.5872H50.4276V40.652C50.4276 41.6054 50.1235 42.4068 49.521 43.0502C48.9185 43.6995 48.164 44.0212 47.269 44.0212C46.4267 44.0212 45.6956 43.6936 45.0814 43.0327C44.4614 42.3717 44.1572 41.5821 44.1572 40.652V27.3039C44.1572 26.4031 44.4731 25.6193 45.1048 24.9467C45.7365 24.274 46.456 23.9347 47.2749 23.9347C48.1757 23.9347 48.9244 24.2857 49.5269 24.9876C50.1293 25.6895 50.4335 26.5728 50.4335 27.6432V29.2459C50.4335 29.357 50.492 29.4155 50.6031 29.4155H55.3177C55.458 29.4155 55.5282 29.357 55.5282 29.2459V27.3098C55.5282 25.7363 55.1656 24.3208 54.4344 23.0573C53.7033 21.7939 52.7147 20.7878 51.463 20.0449H51.4454Z" fill="#0098FF"/>
<path d="M72.2673 36.1547C72.3784 36.1547 72.4369 36.0962 72.4369 35.9851L72.396 31.2237C72.396 31.1126 72.3375 31.0541 72.2263 31.0541H63.5928V24.4854H72.2263C72.3375 24.4854 72.396 24.4269 72.396 24.3157V19.6012C72.396 19.4608 72.3375 19.3906 72.2263 19.3906H58.7086C58.5975 19.3906 58.539 19.4491 58.539 19.5603L58.498 48.4909C58.498 48.6312 58.5565 48.7014 58.6677 48.7014H72.2731C72.3843 48.7014 72.4428 48.6429 72.4428 48.5318V43.7295C72.4428 43.5892 72.3843 43.519 72.2731 43.519H63.5986V36.1489H72.2731L72.2673 36.1547Z" fill="#0098FF"/>
<path d="M36.0438 11.6284L36.0087 0.16963C36.0087 0.0584929 35.9385 0 35.7982 0H31.1246C31.0134 0 30.9549 0.0584929 30.9549 0.16963V11.6225H24.6377L24.6786 0.16963C24.6786 0.0584929 24.6085 0 24.4681 0H19.7945C19.6541 0 19.5839 0.0584929 19.5839 0.16963L19.543 29.1002C19.543 29.2406 19.6015 29.3108 19.7126 29.3108H24.4739C24.5851 29.3108 24.6436 29.2406 24.6436 29.1002V16.7173H26.1644H30.9666V50.9941H36.0965V29.1178C36.0965 29.1178 36.1023 29.1061 36.1023 29.1002V26.9477L36.0965 21.7009H36.0789L36.0672 16.7231H73.7016V11.6284H36.0438Z" fill="#0098FF"/>
</svg>
